<svg xmlns="http://www.w3.org/2000/svg" viewBox="0 0 320 360" width="320" height="360"><title>Micah Bell — original character illustration</title><defs><linearGradient id="skin"><stop offset="0" stop-color="#bcaa90"></stop><stop offset=".6" stop-color="#bcaa90"></stop><stop offset="1" stop-color="#6c715e"></stop></linearGradient><clipPath id="face"><path d="M113 114 C106 47 214 47 207 114 L202 179 Q200 204 183 224 Q160 238 137 224 Q120 204 118 179Z" fill="white"></path></clipPath><linearGradient id="coat" x2="0" y2="1"><stop offset="0" stop-color="#475c52"></stop><stop offset="1" stop-color="#26392c"></stop></linearGradient></defs><path d="M70 360L70 298Q87 272 128 259L116 194Q99 162 110 106Q115 58 156 49Q229 42 226 128L229 234L263 287L286 360Z" fill="#0d1912" opacity=".5" transform="translate(14 3)"></path><path d="M135 204L185 204L188 251L213 268L108 268L132 249Z" fill="#bcaa90"></path><path d="M137 213L185 211L181 241Q158 255 136 235Z" fill="#6c7059" opacity=".48"></path><path d="M18 360L32 289Q49 263 116 247L160 259L204 247Q268 263 288 291L307 360Z" fill="url(#coat)" stroke="#202e26" stroke-width="3"></path><path d="M115 247L138 250L160 272L184 249L205 247L184 300L162 286L138 299Z" fill="#b2b69b" stroke="#202e26" stroke-width="2"></path><path d="M159 274L162 360L131 360L132 299Z" fill="#475c52"></path><path d="M64 292L53 358" fill="none" stroke="#a1ab8e" stroke-width="1" opacity=".45"></path><path d="M246 292L263 359" fill="none" stroke="#202e26" stroke-width="2"></path><circle cx="163" cy="296" r="2.7" fill="#b1b493"></circle><circle cx="163" cy="316" r="2.7" fill="#b1b493"></circle><circle cx="163" cy="338" r="2.7" fill="#b1b493"></circle><ellipse cx="112" cy="146" rx="10" ry="21" fill="#bcaa90" stroke="#202e26" stroke-width="2"></ellipse><ellipse cx="208" cy="146" rx="10" ry="21" fill="#bcaa90" stroke="#202e26" stroke-width="2"></ellipse><path d="M108 135Q123 138 112 154M212 135Q197 138 208 154" fill="none" stroke="#726f59" stroke-width="2"></path><path d="M113 114 C106 47 214 47 207 114 L202 179 Q200 204 183 224 Q160 238 137 224 Q120 204 118 179Z" fill="url(#skin)" stroke="#202e26" stroke-width="3"></path><g clip-path="url(#face)"><path d="M156 68L143 119L150 160L133 196L153 228L112 217L96 113Z" fill="#76826b" opacity=".22"></path><path d="M187 115L200 181L184 209L158 232L226 238L230 86Z" fill="#4b604e" opacity=".24"></path><path d="M115 164Q133 153 143 169L139 184L117 183Z" fill="#b6a188" opacity=".25"></path></g><path d="M124 143Q137 131 150 143Q137 151 124 143Z" fill="#c5c4a8" stroke="#4b5140" stroke-width="1.7"></path><circle cx="137" cy="143" r="5.4" fill="#7b8b62"></circle><circle cx="137" cy="143" r="2.4" fill="#202e26"></circle><circle cx="135.4" cy="141" r="1.1" fill="#dce3c9"></circle><path d="M122 152Q137 158 148 152" fill="none" stroke="#857e65" stroke-width="1.2"></path><path d="M122 128Q137 122 151 124" fill="none" stroke="#42463a" stroke-width="3.5" stroke-linecap="round"></path><path d="M170 143Q183 131 196 143Q183 151 170 143Z" fill="#c5c4a8" stroke="#4b5140" stroke-width="1.7"></path><circle cx="183" cy="143" r="5.4" fill="#7b8b62"></circle><circle cx="183" cy="143" r="2.4" fill="#202e26"></circle><circle cx="181.4" cy="141" r="1.1" fill="#dce3c9"></circle><path d="M168 152Q183 158 194 152" fill="none" stroke="#857e65" stroke-width="1.2"></path><path d="M168 128Q183 122 197 124" fill="none" stroke="#42463a" stroke-width="3.5" stroke-linecap="round"></path><path d="M157 146L152 180Q161 186 171 179" fill="none" stroke="#756e55" stroke-width="2.2" stroke-linecap="round"></path><path d="M154 183Q160 186 166 183" fill="none" stroke="#202e26" stroke-width="1.2"></path><path d="M144 204Q160 205 178 203" fill="none" stroke="#604b3d" stroke-width="2.5" stroke-linecap="round"></path><path d="M151 210Q162 213 172 209" fill="none" stroke="#c2af8f" stroke-width="2"></path><path d="M107 130Q90 97 109 69Q140 35 183 49Q220 61 215 115L206 129L202 86L189 77L175 99L157 88L142 102L118 98L119 131Z" fill="#42463a" stroke="#202e26" stroke-width="2"></path><path d="M122 78Q143 58 164 62M177 62Q195 68 204 85" fill="none" stroke="#ccd0ac" stroke-width="1.4" opacity=".3"></path><rect x="118" y="127" width="36" height="30" fill="none" rx="5" stroke="#344135" stroke-width="3"></rect><rect x="166" y="127" width="36" height="30" fill="none" rx="5" stroke="#344135" stroke-width="3"></rect><path d="M155 142Q161 138 166 142M114 138L107 134M205 138L214 134" fill="none" stroke="#394838" stroke-width="2.5"></path><path d="M192 182Q198 184 193 189" fill="none" stroke="#776950" stroke-width="2"></path><path d="M206 360L207 340Q195 324 210 319Q222 312 233 326L242 360Z" fill="#bcaa90" stroke="#202e26" stroke-width="2"></path><path d="M218 340L230 304" fill="none" stroke="#c4b174" stroke-width="3"></path><path d="M230 304L232 299" fill="none" stroke="#202e26" stroke-width="2"></path><path d="M188 203Q213 198 222 185M193 210Q216 214 228 203" fill="none" stroke="#cbd6c0" stroke-width="2" opacity=".13"></path><path d="M40 325L48 352" fill="none" stroke="#bfc8a0" stroke-width="0.7" opacity=".14"></path><path d="M44 325L52 352" fill="none" stroke="#bfc8a0" stroke-width="0.7" opacity=".14"></path><path d="M48 325L56 352" fill="none" stroke="#bfc8a0" stroke-width="0.7" opacity=".14"></path><path d="M52 325L60 352" fill="none" stroke="#bfc8a0" stroke-width="0.7" opacity=".14"></path><path d="M56 325L64 352" fill="none" stroke="#bfc8a0" stroke-width="0.7" opacity=".14"></path><path d="M60 325L68 352" fill="none" stroke="#bfc8a0" stroke-width="0.7" opacity=".14"></path><path d="M64 325L72 352" fill="none" stroke="#bfc8a0" stroke-width="0.7" opacity=".14"></path><path d="M68 325L76 352" fill="none" stroke="#bfc8a0" stroke-width="0.7" opacity=".14"></path><path d="M72 325L80 352" fill="none" stroke="#bfc8a0" stroke-width="0.7" opacity=".14"></path></svg>