<svg xmlns="http://www.w3.org/2000/svg" viewBox="0 0 1200 650" width="1200" height="650"><title>The Night Window / garden ending illustration</title><rect x="0" y="0" width="1200" height="650" fill="#1b3027"></rect><rect x="45" y="31" width="1110" height="378" fill="#53694b"></rect><circle cx="838" cy="161" r="98" fill="#cfc591" opacity=".28"></circle><path d="M45 31L600 407" fill="none" stroke="#1e3929" stroke-width="6"></path><path d="M45 31L45 409" fill="none" stroke="#2f4a32" stroke-width="7"></path><path d="M210 31L600 407" fill="none" stroke="#1e3929" stroke-width="6"></path><path d="M210 31L210 409" fill="none" stroke="#2f4a32" stroke-width="7"></path><path d="M379 31L600 407" fill="none" stroke="#1e3929" stroke-width="6"></path><path d="M379 31L379 409" fill="none" stroke="#2f4a32" stroke-width="7"></path><path d="M547 31L600 407" fill="none" stroke="#1e3929" stroke-width="6"></path><path d="M547 31L547 409" fill="none" stroke="#2f4a32" stroke-width="7"></path><path d="M715 31L600 407" fill="none" stroke="#1e3929" stroke-width="6"></path><path d="M715 31L715 409" fill="none" stroke="#2f4a32" stroke-width="7"></path><path d="M883 31L600 407" fill="none" stroke="#1e3929" stroke-width="6"></path><path d="M883 31L883 409" fill="none" stroke="#2f4a32" stroke-width="7"></path><path d="M1050 31L600 407" fill="none" stroke="#1e3929" stroke-width="6"></path><path d="M1050 31L1050 409" fill="none" stroke="#2f4a32" stroke-width="7"></path><path d="M1150 31L600 407" fill="none" stroke="#1e3929" stroke-width="6"></path><path d="M1150 31L1150 409" fill="none" stroke="#2f4a32" stroke-width="7"></path><path d="M45 142L1155 142" fill="none" stroke="#28452d" stroke-width="8"></path><path d="M45 270L1155 270" fill="none" stroke="#28452d" stroke-width="8"></path><path d="M45 409L1155 409" fill="none" stroke="#28452d" stroke-width="8"></path><rect x="0" y="412" width="1200" height="238" fill="#294730"></rect><path d="M187 505L244 505L233 594L198 594Z" fill="#a29562"></path><path d="M214 515Q222 380 217 256M219 381L168 309M219 397L281 323" fill="none" stroke="#777250" stroke-width="11"></path><ellipse cx="156" cy="305" rx="62" ry="44" fill="#334d2c" stroke="#627b47" stroke-width="2"></ellipse><ellipse cx="252" cy="326" rx="83" ry="48" fill="#334d2c" stroke="#627b47" stroke-width="2"></ellipse><ellipse cx="216" cy="251" rx="71" ry="66" fill="#334d2c" stroke="#627b47" stroke-width="2"></ellipse><ellipse cx="135" cy="359" rx="56" ry="31" fill="#334d2c" stroke="#627b47" stroke-width="2"></ellipse><ellipse cx="291" cy="377" rx="65" ry="42" fill="#334d2c" stroke="#627b47" stroke-width="2"></ellipse><circle cx="156" cy="317" r="12" fill="#c3a65b"></circle><circle cx="153" cy="313" r="3" fill="#e2c47e"></circle><circle cx="248" cy="313" r="12" fill="#c3a65b"></circle><circle cx="245" cy="309" r="3" fill="#e2c47e"></circle><circle cx="225" cy="239" r="12" fill="#c3a65b"></circle><circle cx="222" cy="235" r="3" fill="#e2c47e"></circle><circle cx="286" cy="388" r="12" fill="#c3a65b"></circle><circle cx="283" cy="384" r="3" fill="#e2c47e"></circle><circle cx="189" cy="275" r="12" fill="#c3a65b"></circle><circle cx="186" cy="271" r="3" fill="#e2c47e"></circle><circle cx="270" cy="351" r="12" fill="#c3a65b"></circle><circle cx="267" cy="347" r="3" fill="#e2c47e"></circle><path d="M395 442L903 420L1033 505L486 554Z" fill="#929267" stroke="#1a3c25" stroke-width="5"></path><path d="M482 543L468 635" fill="none" stroke="#69815a" stroke-width="13"></path><path d="M988 506L1004 595" fill="none" stroke="#69815a" stroke-width="12"></path><path d="M474 455L466 383L554 379L556 447M466 403L554 400" fill="none" stroke="#b0b18b" stroke-width="8"></path><path d="M677 447L669 375L757 371L759 439M669 395L757 392" fill="none" stroke="#b0b18b" stroke-width="8"></path><path d="M892 435L884 363L972 359L974 427M884 383L972 380" fill="none" stroke="#b0b18b" stroke-width="8"></path><path d="M690 622L682 550L770 546L772 614M682 570L770 567" fill="none" stroke="#b0b18b" stroke-width="8"></path><ellipse cx="641" cy="470" rx="48" ry="17" fill="#c3c19d"></ellipse><circle cx="636" cy="467" r="10" fill="#b79c51"></circle><circle cx="659" cy="473" r="9" fill="#cab266"></circle><text x="810" y="590" font-size="14" fill="#b5c294" font-family="monospace">KEEP A CHAIR</text></svg>